<?xml version="1.0" encoding="UTF-8" standalone="no"?>
<!-- Generator: Adobe Illustrator 19.2.1, SVG Export Plug-In . SVG Version: 6.00 Build 0)  -->
<svg xmlns:dc="http://purl.org/dc/elements/1.1/" xmlns:cc="http://creativecommons.org/ns#" xmlns:rdf="http://www.w3.org/1999/02/22-rdf-syntax-ns#" xmlns:svg="http://www.w3.org/2000/svg" xmlns="http://www.w3.org/2000/svg" xmlns:sodipodi="http://sodipodi.sourceforge.net/DTD/sodipodi-0.dtd" xmlns:inkscape="http://www.inkscape.org/namespaces/inkscape" version="1.1" x="0px" y="0px" viewBox="0 0 5300 5900" xml:space="preserve" id="svg76" sodipodi:docname="signdocument.svg" inkscape:version="0.91 r13725" width="5300" height="5900"><metadata id="metadata82"><rdf:RDF><cc:Work rdf:about=""><dc:format>image/svg+xml</dc:format><dc:type rdf:resource="http://purl.org/dc/dcmitype/StillImage"/><dc:title/></cc:Work></rdf:RDF></metadata><defs id="defs80"/><sodipodi:namedview pagecolor="#ffffff" bordercolor="#666666" borderopacity="1" objecttolerance="10" gridtolerance="10" guidetolerance="10" inkscape:pageopacity="0" inkscape:pageshadow="2" inkscape:window-width="1920" inkscape:window-height="1035" id="namedview78" showgrid="false" inkscape:zoom="0.077537139" inkscape:cx="2253.4396" inkscape:cy="1552.9379" inkscape:window-x="0" inkscape:window-y="1" inkscape:window-maximized="1" inkscape:current-layer="g306"/><style type="text/css" id="style2">
	.st0{fill:#EE745C;}
	.st1{fill:#BC9673;}
	.st2{fill:#ECB98C;}
	.st3{fill:#221F21;}
	.st4{fill:#FFFFFF;}
	.st5{fill:#184F78;}
	.st6{fill:#9A9A9A;}
	.st7{fill:#41424D;}
	.st8{fill:#35363D;}
	.st9{fill:#F6E2C9;}
	.st10{fill:#CECECE;}
	.st11{fill:#F9C68F;}
	.st12{fill:#282928;}
	.st13{fill:#E0BA94;}
	.st14{fill:#FBBF32;}
	.st15{fill:#F9A823;}
	.st16{fill:#E5E5E9;}
	.st17{fill:#CE5852;}
</style><path d="m 2506.0442,2537.0873 245.147,0 0,245.147 -245.147,0 z m -70.0416,-210.1242 35.0207,0 0,35.0202 -35.0207,0 0,35.0203 35.0207,0 0,35.0202 35.0209,0 0,-70.0405 35.021,0 0,-70.0431 -35.021,0 0,-35.02 35.021,0 0,-35.0211 35.0208,0 0,35.0211 35.021,0 0,70.0429 -35.021,0 0,35.0202 70.0417,0 0,35.0203 35.022,0 0,35.0202 35.0207,0 0,-35.0202 34.9987,0 0,70.0431 -34.9987,0 0,35.0203 -70.0427,0 0,-35.0203 -35.0207,0 0,35.0203 -105.0628,0 0,-35.0203 -35.0209,0 0,-35.0229 -35.0207,0 0,-35.0202 -35.0208,0 0,-35.0203 35.0208,0 0,-35.0202 -70.0419,0 0,70.0405 -35.0215,0 0,35.0202 -105.0629,0 0,35.0229 70.0424,0 0,35.0203 35.0205,0 0,-35.0203 35.0215,0 0,-35.0229 35.0211,0 0,70.0432 70.0415,0 0,140.0833 -35.0207,0 0,35.0203 35.0207,0 0,35.0232 -35.0207,0 0,35.0203 35.0207,0 0,35.0202 -70.0415,0 0,-70.0405 35.0208,0 0,-35.0232 -35.0208,0 0,-35.0203 35.0208,0 0,-35.0199 -35.0208,0 0,-35.0203 0,-35.0228 35.0208,0 0,35.0228 -35.0208,0 -35.0211,0 0,-35.0228 -35.0215,0 0,105.063 35.0215,0 0,140.084 -35.0215,0 0,-35.0202 -35.0205,0 0,-70.0435 35.0205,0 0,-35.0203 -35.0205,0 0,-140.0833 -70.0424,0 0,-35.0203 -70.0416,0 0,35.0203 -35.021,0 0,-35.0203 -35.0211,0 0,35.0203 -70.0418,0 0,-105.0634 70.0418,0 0,-35.0203 35.0211,0 0,-35.0202 140.0837,0 0,35.0202 0,35.0203 -35.0211,0 0,-35.0203 35.0211,0 35.0213,0 0,35.0203 35.0205,0 0,-70.0405 -35.0205,0 0,-70.0429 35.0205,0 0,-70.0421 -35.0205,0 0,-35.0207 35.0205,0 0,-35.0211 -35.0205,0 0,-70.0198 35.0205,0 0,70.0198 35.0215,0 0,-34.9985 35.0211,0 0,-35.0213 35.0208,0 0,70.0198 35.0207,0 0,-34.9985 35.0209,0 0,-35.0213 70.0418,0 0,35.0213 35.021,0 0,-35.0213 35.0207,0 0,35.0213 -35.0207,0 0,34.9985 70.0427,0 0,35.0211 35.0207,0 0,-35.0211 34.9987,0 0,70.0418 -34.9987,0 0,35.021 34.9987,0 0,35.0211 -34.9987,0 0,35.02 -35.0207,0 0,35.0229 70.0194,0 0,35.0202 -70.0194,0 0,-35.0202 -35.022,0 0,-70.0429 70.0427,0 0,-35.0211 -35.0207,0 0,-70.0417 -70.0427,0 0,35.0207 -70.0418,0 0,-35.0207 -35.021,0 0,70.0417 -35.0209,0 0,35.0211 -105.0626,0 0,35.02 70.0419,0 z m 245.1471,-280.1466 35.0207,0 0,35.0213 -35.0207,0 z m -175.1055,420.2302 35.021,0 0,-35.0229 -35.021,0 z m -385.2305,-105.0634 0,35.0203 -35.0211,0 0,35.0202 105.0629,0 0,-35.0202 -35.0208,0 0,-35.0203 z m 315.1889,-245.147 -70.0419,0 0,35.0211 35.0211,0 0,35.0207 0,35.021 -35.0211,0 0,-35.021 35.0211,0 35.0208,0 0,35.021 35.0207,0 0,-70.0417 -35.0207,0 z m 210.1251,350.2104 35.022,0 0,-35.0229 -35.022,0 z m -560.3351,-35.0229 -35.021,0 0,35.0229 35.021,0 z m 420.2516,-315.1875 35.021,0 0,-35.0211 -35.021,0 z m 35.021,35.0211 35.0208,0 0,-35.0211 -35.0208,0 z m -455.2726,-35.0211 105.0629,0 0,105.0628 -105.0629,0 z m 490.2934,490.2941 105.0637,0 0,105.0634 -105.0637,0 z m -490.2934,0 105.0629,0 0,105.0634 -105.0629,0 z m 490.2934,-210.1268 35.021,0 0,35.0202 -35.021,0 z m -560.3352,-350.1871 245.1468,0 0,245.1474 -245.1468,0 z m 35.0208,35.0213 175.1049,0 0,175.1048 -175.1049,0 z m -35.0208,455.2495 245.1468,0 0,245.147 -245.1468,0 z m 35.0208,35.0228 175.1049,0 0,175.104 -175.1049,0 z m 490.2936,0 175.1052,0 0,175.104 -175.1052,0 z" style="display:inline;fill:none;fill-opacity:1;fill-rule:evenodd;stroke:none;stroke-width:22.33481026" id="path20" inkscape:connector-curvature="0" inkscape:label="QR-code"/><g id="g306" transform="translate(0,900)"><path class="st1" d="m 928.86368,1106.7823 c -10.49741,7.9824 -152.3218,344.2276 -483.31828,590.5887 l 10.60676,-583.9185 z" id="path7" inkscape:connector-curvature="0" style="fill:#bc9673;stroke-width:1.09348023"/><path class="st2" d="M 99.240209,1781.897 236.14394,1180.1548 c 0,0 13.12176,-45.9261 40.89616,-94.9141 28.97722,-50.9561 75.34079,-89.7747 130.56154,-109.676 l 595.15726,-198.5075 -45.57409,317.5875 -369.37763,113.2845 c 0,0 -49.644,15.8555 -43.73921,129.1401 l -7.10762,299.9416 c -2.515,105.3021 62.10968,201.419 161.39769,236.5198 17.93307,6.3421 36.52224,10.4974 55.22075,11.4815 l -319.62428,432.1434 -240.675,-257.2959 c 0,0 -127.827841,-123.0165 -94.039301,-277.9627 z" id="path9" inkscape:connector-curvature="0" style="fill:#ecb98c;stroke-width:1.09348023" sodipodi:nodetypes="cccccccccccccc"/><path style="fill:#221f21;stroke-width:1.09348023" d="m 924.5991,-833.48905 c -59.15728,0 -107.16106,48.00378 -107.16106,107.16107 l 0,3810.77868 c 0,59.1573 48.00378,107.1611 107.16106,107.1611 l 2780.7203,0 c 59.1573,0 107.161,-48.0038 107.161,-107.1611 l 0,-3810.77868 c 0,-59.15729 -48.0037,-107.16107 -107.161,-107.16107 z m 301.6916,193.54601 2187.1784,0 c 115.2528,0 208.7458,93.49298 208.7458,208.74581 l 0,3220.51713 c 0,115.2529 -93.493,208.7459 -208.7458,208.7459 l -2187.1784,0 c -115.2528,0 -208.7458,-93.493 -208.7458,-208.7459 l 0,-3220.51713 c 0,-115.25283 93.493,-208.74581 208.7458,-208.74581 z" id="path11" inkscape:connector-curvature="0"/><path style="fill:#cccccc;stroke-width:1.09348023" d="m 1279.3245,348.2342 0,98.4132 2059.679,0 0,-98.4132 z m 0,278.8374 0,98.4133 2059.679,0 0,-98.4133 z m 0,278.8375 0,98.4132 2059.679,0 0,-98.4132 z m 0,278.8375 0,98.4132 2059.679,0 0,-98.4132 z m 0,278.9485 0,98.4133 2059.679,0 0,-98.4133 z m 0,278.8375 0,98.4132 2059.679,0 0,-98.4132 z m 0,278.8375 0,98.4132 2059.679,0 0,-98.4132 z" id="rect21" inkscape:connector-curvature="0"/><polygon transform="matrix(1.0934803,0,0,2.9142989,-467.40126,-9265.2734)" class="st7" points="1725,5000 847.2,5000 846.4,4227.5 1254.1,4227.1 1315,4227 1723,4226.6 1724.6,4226.6 " id="polygon39" style="fill:#41424d"/><polygon transform="matrix(1.0934803,0,0,2.9142989,-467.40126,-9265.2734)" class="st8" points="846.1,4227.1 1315,4226.6 1315,4227 1315.8,5000 846.9,5000 " id="polygon41" style="fill:#35363d"/><path class="st2" d="m 952.5922,1683.8118 c 15.52742,-37.725 65.7182,-191.5777 58.5012,-334.7143 l -8.8572,-293.3807 c 0,0 1.3122,-98.7413 92.5084,-141.7151 4.2646,-1.9682 8.6385,-3.4991 13.1218,-4.5926 26.1342,-6.3422 118.3146,-22.5257 188.9534,42.099 7.873,7.217 14.1059,16.1835 18.0424,26.2435 8.8572,22.5257 21.3229,70.8576 21.5416,164.0221 l 31.2735,797.9125 c 0,0 -1.2028,201.3097 -41.3336,337.6667 -0.656,2.0776 -1.0934,4.1552 -1.5308,6.3422 -4.1553,20.8855 -28.2118,139.9655 -52.8151,195.4049 -4.0459,9.0759 -6.1235,18.8079 -6.1235,28.6492 l -0.3281,120.3922 c 0,2.0776 -1.6402,3.7178 -3.7178,3.7178 l -641.32616,0 0,-70.6388 c 0,-16.949 -6.12348,-33.3512 -17.16764,-46.2542 L 433.18908,2318.1397 730.50636,1916.1764 c 6.77958,-9.1852 15.09003,-21.2135 21.97895,-30.2894 6.23284,-8.4198 94.91409,54.5647 200.10689,-202.0752 z" id="path43" inkscape:connector-curvature="0" style="fill:#ecb98c;stroke-width:1.09348023"/><path class="st9" d="m 1255.9236,1155.7702 -162.2725,-3.1711 c -13.8871,-0.2187 -24.822,-11.8096 -24.2752,-25.6968 l 3.4991,-88.6812 c 0,0 6.9983,-70.2014 96.0076,-79.6054 0,0 74.9034,-5.1393 107.1611,61.0162 0,0 10.9348,27.4464 5.358,83.2139 l -0.4374,28.4305 c 0,13.8872 -11.2628,24.822 -25.0407,24.4939 z" id="path45" inkscape:connector-curvature="0" style="fill:#f6e2c9;stroke-width:1.09348023"/><path class="st10" d="m 502.62507,3077.2337 871.39443,-0.8748 c 56.3142,-0.1093 102.2404,-46.1448 102.2404,-102.4591 l -0.3281,-272.4952 c -0.1093,-56.3143 -46.1448,-102.2404 -102.4591,-102.2404 l -871.39437,0.8747 c -56.31423,0.1094 -102.2404,46.1449 -102.2404,102.4591 l 0.32804,272.4953 c 0.10935,56.3143 46.14487,102.2404 102.4591,102.2404 z" id="path47" inkscape:connector-curvature="0" style="fill:#cecece;stroke-width:1.09348023"/><path class="st11" d="m 3152.0323,2364.4491 c 0,0 -355.4904,-36.6316 -363.4728,-21.8696 -7.9824,14.762 238.9254,284.0862 238.9254,284.0862 l 103.6619,-98.8506 z" id="path49" inkscape:connector-curvature="0" style="display:inline;fill:#9ea4c9;stroke-width:1.09348023;fill-opacity:1"/><path class="st12" d="m 2929.181,2344.5478 c 0,0 -140.1841,-11.8096 -143.1365,-3.7179 -3.7179,10.1694 86.6036,112.1911 86.6036,112.1911 z" id="path51" inkscape:connector-curvature="0" style="display:inline;fill:#282928;stroke-width:1.09348023"/><path class="st13" d="m 3731.5768,2829.3969 c 12.7937,2.4057 286.3825,236.4104 687.0337,307.4867 L 4151.3639,2626.447 Z" id="path53" inkscape:connector-curvature="0" style="display:inline;fill:#e0ba94;stroke-width:1.09348023"/><path class="st2" d="m 4761.4165,3058.481 -386.4359,-470.3058 c 0,0 -31.9296,-34.7727 -77.9651,-65.6089 -48.0038,-32.2576 -106.177,-45.9261 -163.5847,-39.1465 l -758.2192,90.3214 326.0758,257.4053 375.8292,-63.3125 c 0,0 50.8468,-7.8731 95.5702,94.586 l 138.7626,261.4511 c 48.6599,91.743 34.2259,205.1369 -37.9438,279.931 -13.0124,13.5591 -27.5557,25.3687 -43.6298,34.4446 l 472.8208,240.0189 98.7413,-333.2928 c -0.2187,0.2187 58.1732,-164.7874 -40.0214,-286.4918 z" id="path55" inkscape:connector-curvature="0" style="display:inline;fill:#ecb98c;stroke-width:1.09348023"/><polygon transform="matrix(1.0934803,0,0,1.0934803,56.936397,512.9683)" class="st7" points="3752.6,3884.7 4166.4,3678.1 4526.2,3498.5 5000,4447.3 5000,5000 4308.6,5000 3751.2,3885.5 " id="polygon57" style="display:inline;fill:#41424d"/><polygon transform="matrix(1.0934803,0,0,1.0934803,56.936397,512.9683)" class="st8" points="3752.6,3884.7 4166.4,3678.1 4826.5,5000 4309.5,5000 " id="polygon59" style="display:inline;fill:#35363d"/><path class="st14" d="m 3151.7043,2364.3398 1531.6377,737.8804 -123.3445,254.6716 -1532.5126,-730.2261 c 52.1418,-76.2455 51.3385,-213.1854 124.2194,-262.3259 z" id="path61" inkscape:connector-curvature="0" style="display:inline;fill:#3257fb;fill-opacity:1;stroke-width:1.09348023" sodipodi:nodetypes="ccccc"/><path class="st15" d="m 3079.5346,2491.6209 c -42.0856,66.9325 -66.3694,79.7773 -51.9404,135.0448 l 1532.622,730.1167 60.032,-124.11 z" id="path63" inkscape:connector-curvature="0" style="display:inline;fill:#3f23f9;fill-opacity:1;stroke-width:1.09348023" sodipodi:nodetypes="ccccc"/><path class="st2" d="m 3965.3629,3348.8 c -30.2894,-26.4622 -142.5898,-139.9654 -199.4508,-269.3242 l -121.7043,-262.6539 c 0,0 -44.7234,-86.4943 -144.2301,-84.198 -4.5926,0.1094 -9.1852,0.6561 -13.6685,1.7496 -25.9155,5.9048 -114.2687,32.367 -148.0572,120.6108 -3.8272,9.8414 -5.2487,20.5575 -4.2646,31.0549 2.187,23.7285 12.4657,71.8416 53.4712,154.1807 l 324.7636,717.5417 c 0,0 89.9935,177.0345 185.5636,279.6029 1.4216,1.5309 2.8431,3.1711 4.1553,4.9207 12.903,16.6209 86.6036,111.0976 132.8578,148.932 7.545,6.2328 13.6685,13.8872 18.0424,22.5257 l 53.4712,106.0676 c 0.8748,1.7496 3.0618,2.515 4.9207,1.6402 l 565.548,-283.102 -31.1642,-62.3284 c -7.545,-14.9807 -9.404,-32.1483 -5.2487,-48.3318 l 63.2031,-248.7668 -439.7977,-223.398 c -10.0601,-5.1394 -22.6351,-12.0283 -32.8044,-16.9489 -9.0759,-4.4833 -59.376,90.2121 -265.6064,-89.7748 z" id="path65" inkscape:connector-curvature="0" style="display:inline;fill:#ecb98c;stroke-width:1.09348023"/><path class="st9" d="m 3464.6583,3017.1475 141.715,-74.3567 c 12.1377,-6.3422 16.6209,-21.4322 10.0601,-33.3511 l -42.3177,-76.653 c 0,0 -37.1784,-58.8292 -119.8455,-27.7744 0,0 -68.2331,28.5398 -67.577,101.1469 0,0 2.4056,28.9772 32.0389,75.7782 l 12.9031,24.9314 c 6.2328,11.9189 20.9948,16.5115 33.0231,10.2787 z" id="path67" inkscape:connector-curvature="0" style="display:inline;fill:#f6e2c9;stroke-width:1.09348023"/><path class="st10" d="m 4977.5976,4379.1865 -769.0447,384.0302 c -49.644,24.822 -110.5508,4.4833 -135.3728,-45.1607 l -120.0642,-240.4563 c -24.822,-49.644 -4.4832,-110.5509 45.1608,-135.3729 l 769.0446,-384.0302 c 49.644,-24.822 110.5509,-4.4833 135.3729,45.1607 l 120.0641,240.4563 c 24.822,49.644 4.4833,110.5509 -45.1607,135.3729 z" id="path69" inkscape:connector-curvature="0" style="display:inline;fill:#cecece;stroke-width:1.09348023"/><polygon transform="matrix(1.0934803,0,0,1.0934803,56.936397,512.9683)" class="st16" points="4297.1,2399.5 4226.9,2365.7 4116.4,2600 4184.4,2632.4 " id="polygon71" style="display:inline;fill:#7e7ef9;fill-opacity:1"/><path class="st17" d="m 4632.3859,3391.4458 75.6688,36.0848 c 34.2259,16.2929 75.1221,1.7496 91.3056,-32.367 l 62.7658,-131.655 c 16.1835,-34.1166 1.8589,-74.9034 -32.1484,-91.1963 l -76.7623,-36.9596 z" id="path73" inkscape:connector-curvature="0" style="display:inline;fill:#525ece;stroke-width:1.09348023;fill-opacity:1"/><path style="fill:none;fill-rule:evenodd;stroke:#392b2b;stroke-width:22;stroke-linecap:round;stroke-linejoin:round;stroke-miterlimit:4;stroke-dasharray:none;stroke-opacity:1" d="m 2067.3885,2265.0627 c -32.5331,-12.6206 21.2386,-68.4433 5.7028,-19.6808 12.7055,-54.2474 -51.5182,-82.5879 -96.3925,-73.3435 -47.3577,-2.6699 -86.5209,24.0054 -127.1901,43.1745 -42.4291,17.9877 -90.647,35.3363 -114.885,77.5904 20.9146,63.4599 94.7939,79.5342 153.2705,86.4922 39.7402,9.815 131.7567,4.5116 116.19,65.3364 -21.3883,51.7757 -45.283,108.9159 -27.7631,164.9467 27.3916,59.561 72.0945,-8.8172 79.1897,-43.72 11.8507,-35.2189 67.7458,-71.4347 54.0761,-104.4579 -34.9697,8.343 -49.5894,105.3754 3.0532,68.7715 24.8851,-27.3452 65.1221,-31.5004 94.626,-53.3146 31.9082,-19.1502 60.0418,-57.0988 50.3206,-95.6184 -40.3178,-51.9161 -123.4529,7.1857 -105.1237,65.5197 11.238,54.1638 68.4708,101.956 124.7206,95.0694 64.6916,-13.0922 87.4909,-84.1134 105.3917,-139.1403 28.7126,-65.593 47.337,-141.597 24.8278,-211.9197 -21.5051,50.6819 -22.8046,111.5304 3.3194,160.8013 49.0382,38.2522 87.4995,-42.4245 81.9621,-84.7006 -12.0541,-51.5808 23.5474,-97.5736 28.0007,-141.1244 -1.3684,43.716 -2.7136,87.689 -6.7835,131.4329 -0.971,38.7722 -0.3106,87.8358 36.8646,110.5156 17.9302,-23.2044 53.023,-60.6395 75.4224,-79.0554 25.5082,12.6306 -6.0847,89.399 30.4024,68.1672 21.2248,-50.4611 87.2029,-37.18 126.3835,-18.7045 32.7895,12.6695 84.7588,45.3957 87.1936,72.4462 -13.5166,-1.2527 -24.795,-11.8663 -38.7451,-10.6542" id="path15126" inkscape:connector-curvature="0"/><path style="fill:#3f23f9;fill-opacity:1;fill-rule:evenodd;stroke:none;stroke-width:1px;stroke-linecap:butt;stroke-linejoin:miter;stroke-opacity:1" d="m 4528.0302,3303.3932 -78.6507,82.3959 -576.7714,-213.4804 3.7453,-44.9432 554.2998,187.2634 74.9054,-52.4337 z" id="path15154" inkscape:connector-curvature="0" sodipodi:nodetypes="ccccccc"/></g></svg>